<?xml version="1.0" encoding="iso-8859-1"?>
<!-- Generator: Adobe Illustrator 19.0.0, SVG Export Plug-In . SVG Version: 6.00 Build 0)  -->
<svg version="1.1" id="Layer_1" xmlns="http://www.w3.org/2000/svg" xmlns:xlink="http://www.w3.org/1999/xlink" x="0px" y="0px"
	 viewBox="0 0 512 512" style="enable-background:new 0 0 512 512;" xml:space="preserve">
<g>
	<path style="fill:#FFFFFF;" d="M209.458,162.909h39.052l30.58,67.293c3.7,8.134,8.355,15.581,13.58,22.493
		c-20.957-12.591-45.393-19.968-71.575-19.968c-3.933,0-7.785,0.268-11.636,0.593V162.909z"/>
	<path style="fill:#FFFFFF;" d="M381.281,453.818c-5.853,0-10.822-4.375-11.543-10.193l-9.065-72.46
		c-0.279-32.687-11.846-62.708-30.988-86.388c12.439,6.807,26.182,11.473,40.785,13.475c13.289,4.119,23.18,15.535,25.216,28.544
		l10.577,127.023H381.281z"/>
	<circle style="fill:#FFFFFF;" cx="221.094" cy="372.364" r="69.818"/>
</g>
<path style="fill:#00384E;" d="M221.094,116.364c-32.081,0-58.182-26.1-58.182-58.182S189.013,0,221.094,0
	s58.182,26.1,58.182,58.182S253.176,116.364,221.094,116.364z M221.094,23.273c-19.247,0-34.909,15.663-34.909,34.909
	s15.663,34.909,34.909,34.909s34.909-15.663,34.909-34.909S240.341,23.273,221.094,23.273z"/>
<path style="fill:#72C6EF;" d="M221.094,244.364c-70.691,0-128,57.309-128,128s57.309,128,128,128s128-57.309,128-128
	S291.785,244.364,221.094,244.364z M221.094,453.818c-44.986,0-81.455-36.468-81.455-81.455s36.468-81.455,81.455-81.455
	s81.455,36.468,81.455,81.455S266.081,453.818,221.094,453.818z"/>
<g>
	<path style="fill:#00384E;" d="M418.773,324.049c-3.549-23.017-20.294-42.007-42.682-48.407c-0.559-0.163-1.129-0.279-1.699-0.349
		c-32.733-4.212-60.439-24.669-74.112-54.714l-33.687-74.112c-1.885-4.166-6.016-6.831-10.589-6.831h-58.182
		c-6.435,0-11.636,5.213-11.636,11.636v86.051c-60.125,15.558-104.727,70.121-104.727,135.04
		C81.458,449.361,144.097,512,221.094,512c54.121,0,101.05-31.011,124.218-76.148l1.338,10.659
		c2.164,17.431,17.059,30.58,34.63,30.58h37.632c3.247,0,6.365-1.361,8.564-3.759c2.188-2.397,3.293-5.597,3.025-8.844
		L418.773,324.049z M209.458,162.909h39.052l30.58,67.293c3.7,8.134,8.355,15.581,13.58,22.493
		c-20.957-12.591-45.393-19.968-71.575-19.968c-3.933,0-7.785,0.268-11.636,0.593V162.909z M221.094,488.727
		c-64.163,0-116.364-52.201-116.364-116.364S156.932,256,221.094,256s116.364,52.201,116.364,116.364
		S285.257,488.727,221.094,488.727z M381.281,453.818c-5.853,0-10.822-4.375-11.543-10.193l-9.065-72.46
		c-0.279-32.687-11.846-62.708-30.988-86.388c12.439,6.807,26.182,11.473,40.785,13.475c13.289,4.119,23.18,15.535,25.216,28.544
		l10.577,127.023H381.281z"/>
	<path style="fill:#00384E;" d="M221.094,279.273c-51.328,0-93.091,41.763-93.091,93.091s41.763,93.091,93.091,93.091
		s93.091-41.763,93.091-93.091S272.422,279.273,221.094,279.273z M221.094,442.182c-38.505,0-69.818-31.313-69.818-69.818
		s31.313-69.818,69.818-69.818s69.818,31.313,69.818,69.818S259.599,442.182,221.094,442.182z"/>
</g>
<circle style="fill:#FFFFFF;" cx="221.094" cy="58.182" r="34.909"/>
<g>
</g>
<g>
</g>
<g>
</g>
<g>
</g>
<g>
</g>
<g>
</g>
<g>
</g>
<g>
</g>
<g>
</g>
<g>
</g>
<g>
</g>
<g>
</g>
<g>
</g>
<g>
</g>
<g>
</g>
</svg>
